<svg width="16" height="15" viewBox="0 0 16 15" fill="none" xmlns="http://www.w3.org/2000/svg">
<circle cx="13" cy="12" r="3" fill="#C3D6F1"/>
<path fill-rule="evenodd" clip-rule="evenodd" d="M3.63401 0.682454C4.0644 0.367531 4.60283 0.166672 5.14665 0.166672H7.67998C7.93793 0.166672 8.24336 0.208391 8.52815 0.289757C8.78652 0.363579 9.10215 0.490748 9.33916 0.711756L11.3806 2.29224L10.646 3.24111L8.54927 1.61783L8.52238 1.59094C8.49573 1.56428 8.39505 1.49975 8.19848 1.44359C8.0166 1.39162 7.82203 1.36667 7.67998 1.36667H5.14665C4.89046 1.36667 4.59556 1.46581 4.34262 1.65089C4.09011 1.83565 3.92147 2.07456 3.86207 2.31219L3.85678 2.33335L2.24759 7.22797L2.24503 7.23514C2.13757 7.536 2.19473 7.75618 2.29635 7.89409C2.40078 8.03582 2.60898 8.16667 2.94665 8.16667H5.61331C6.36799 8.16667 6.99372 8.81313 6.87395 9.65153L6.87284 9.65931L6.5365 11.8115L6.53236 11.8302C6.47049 12.1086 6.67342 12.4876 7.00305 12.5975L7.01359 12.601L7.02399 12.6049C7.13303 12.6458 7.28643 12.6477 7.4516 12.5909C7.6208 12.5328 7.73471 12.4362 7.78075 12.3672L7.78201 12.3653L10.5153 8.29864L11.5113 8.96804L8.77921 13.0328C8.77896 13.0332 8.77871 13.0336 8.77847 13.0339C8.55779 13.3643 8.20541 13.6007 7.8417 13.7258C7.47658 13.8513 7.03432 13.887 6.61319 13.7324C5.75496 13.4404 5.16587 12.502 5.35647 11.5906L5.6864 9.47899C5.69101 9.44422 5.68713 9.42292 5.68398 9.41208C5.68067 9.40067 5.67609 9.39357 5.67174 9.38865C5.66328 9.37905 5.64519 9.36667 5.61331 9.36667H2.94665C2.28432 9.36667 1.69251 9.09752 1.33028 8.60592C0.96671 8.11251 0.889677 7.46926 1.1122 6.83925L2.70376 1.99824C2.84843 1.44625 3.20905 0.993399 3.63401 0.682454Z" fill="#444444"/>
<path fill-rule="evenodd" clip-rule="evenodd" d="M11.8036 2.22422C11.768 2.25712 11.68 2.36762 11.68 2.76668V9.30001C11.68 9.69907 11.768 9.80956 11.8036 9.84246C11.851 9.88624 11.9926 9.96668 12.4133 9.96668H13.08C13.5007 9.96668 13.6422 9.88624 13.6897 9.84246C13.7253 9.80956 13.8133 9.69907 13.8133 9.30001V2.76668C13.8133 2.36762 13.7253 2.25712 13.6897 2.22422C13.6422 2.18044 13.5007 2.10001 13.08 2.10001H12.4133C11.9926 2.10001 11.851 2.18044 11.8036 2.22422ZM10.9897 1.34246C11.3756 0.986242 11.9007 0.900009 12.4133 0.900009H13.08C13.5926 0.900009 14.1177 0.986242 14.5036 1.34246C14.9013 1.70956 15.0133 2.2324 15.0133 2.76668V9.30001C15.0133 9.83429 14.9013 10.3571 14.5036 10.7242C14.1177 11.0804 13.5926 11.1667 13.08 11.1667H12.4133C11.9007 11.1667 11.3756 11.0804 10.9897 10.7242C10.592 10.3571 10.48 9.83429 10.48 9.30001V2.76668C10.48 2.2324 10.592 1.70956 10.9897 1.34246Z" fill="#444444"/>
</svg>
