<svg width="28" height="28" viewBox="0 0 28 28" fill="none" xmlns="http://www.w3.org/2000/svg">
<path opacity="0.4" d="M2.74185 16.2866C3.19685 16.94 4.00185 17.3133 4.92351 17.3133H9.70685C10.0218 17.3133 10.3135 17.4416 10.5118 17.675C10.7218 17.9083 10.8035 18.235 10.7568 18.5733L10.1618 22.4C9.90518 23.5433 10.6635 24.8266 11.8068 25.2116C12.8685 25.6083 14.1168 25.0716 14.6185 24.3133L19.5302 16.9983L19.6702 16.765V6.45164L19.4952 6.27664L15.7968 3.41831C15.3068 2.92831 14.1985 2.65997 13.4168 2.65997H8.86685C7.30351 2.65997 5.72851 3.83831 5.37851 5.27331L2.50851 14.0116C2.21685 14.84 2.29851 15.6566 2.74185 16.2866Z" fill="#999999"/>
<path d="M21.9218 20.545H23.1234C24.9317 20.545 25.6667 19.845 25.6667 18.1183V6.39334C25.6667 4.66667 24.9317 3.96667 23.1234 3.96667H21.9218C20.1134 3.96667 19.3784 4.66667 19.3784 6.39334V18.13C19.3784 19.845 20.1134 20.545 21.9218 20.545Z" fill="#999999"/>
</svg>
