<svg width="29" height="28" viewBox="0 0 29 28" fill="none" xmlns="http://www.w3.org/2000/svg">
<path opacity="0.4" d="M3.22734 16.1156C3.67756 16.7621 4.4741 17.1315 5.38609 17.1315H10.1192C10.4309 17.1315 10.7195 17.2585 10.9157 17.4894C11.1235 17.7202 11.2043 18.0435 11.1581 18.3783L10.5694 22.1647C10.3154 23.2961 11.0658 24.5659 12.1971 24.9469C13.2476 25.3394 14.4829 24.8083 14.9793 24.058L19.8393 16.8198L19.9779 16.5889V6.38392L19.8047 6.21076L16.1452 3.38245C15.6604 2.89759 14.5637 2.63208 13.7902 2.63208H9.288C7.74109 2.63208 6.18263 3.79804 5.83631 5.21796L2.99646 13.8645C2.70786 14.6841 2.78866 15.4922 3.22734 16.1156Z" fill="#91ec22"/>
<path d="M22.2061 20.3292H23.3951C25.1845 20.3292 25.9117 19.6366 25.9117 17.9281V6.32623C25.9117 4.6177 25.1845 3.92505 23.3951 3.92505H22.2061C20.4167 3.92505 19.6895 4.6177 19.6895 6.32623V17.9396C19.6895 19.6366 20.4167 20.3292 22.2061 20.3292Z" fill='#91ec22"/>
</svg>
