<svg width="16" height="16" viewBox="0 0 16 16" fill="none" xmlns="http://www.w3.org/2000/svg">
<circle cx="13" cy="13" r="3" fill="#C3D6F1"/>
<path fill-rule="evenodd" clip-rule="evenodd" d="M9.38682 1.26763C10.245 1.55965 10.8341 2.49799 10.6435 3.40945L10.3136 5.52101C10.309 5.55578 10.3129 5.57709 10.316 5.58792C10.3193 5.59934 10.3239 5.60643 10.3282 5.61136C10.3367 5.62095 10.3548 5.63333 10.3867 5.63333H13.0533C13.7157 5.63333 14.3075 5.90248 14.6697 6.39408C15.0333 6.88749 15.1103 7.53074 14.8878 8.16075L13.2962 13.0018C13.1516 13.5537 12.7909 14.0066 12.366 14.3175C11.9356 14.6325 11.3972 14.8333 10.8533 14.8333H8.32001C8.06206 14.8333 7.75663 14.7916 7.47185 14.7102C7.21347 14.6364 6.89784 14.5093 6.66083 14.2882L4.61938 12.7078L5.35398 11.7589L7.45072 13.3822L7.47761 13.4091C7.50426 13.4357 7.60494 13.5003 7.80151 13.5564C7.9834 13.6084 8.17796 13.6333 8.32001 13.6333H10.8533C11.1095 13.6333 11.4044 13.5342 11.6574 13.3491C11.9099 13.1643 12.0785 12.9254 12.1379 12.6878L12.1432 12.6667L13.7524 7.77204L13.755 7.76486C13.8624 7.464 13.8053 7.24382 13.7036 7.10592C13.5992 6.96418 13.391 6.83333 13.0533 6.83333H10.3867C9.632 6.83333 9.00627 6.18688 9.12604 5.34848L9.12715 5.3407L9.46349 3.18849L9.46763 3.16984C9.5295 2.89142 9.32657 2.51242 8.99694 2.40254L8.98641 2.39903L8.97601 2.39513C8.86696 2.35424 8.71356 2.3523 8.54839 2.40908C8.37919 2.46724 8.26528 2.56375 8.21924 2.63282L8.21799 2.6347L5.48465 6.70137L4.48871 6.03196L7.22078 1.96718C7.22103 1.96681 7.22127 1.96644 7.22152 1.96608C7.44219 1.63572 7.79457 1.39928 8.1583 1.27425C8.52342 1.14874 8.96568 1.11302 9.38682 1.26763Z" fill="#444444"/>
<path fill-rule="evenodd" clip-rule="evenodd" d="M2.31033 5.15754C2.27469 5.19044 2.18669 5.30094 2.18669 5.7V12.2333C2.18669 12.6324 2.27469 12.7429 2.31033 12.7758C2.35776 12.8196 2.49935 12.9 2.92003 12.9H3.58669C4.00737 12.9 4.14896 12.8196 4.19639 12.7758C4.23203 12.7429 4.32003 12.6324 4.32003 12.2333V5.7C4.32003 5.30094 4.23203 5.19044 4.19639 5.15754C4.14896 5.11376 4.00737 5.03333 3.58669 5.03333H2.92003C2.49935 5.03333 2.35776 5.11376 2.31033 5.15754ZM1.49639 4.27578C1.8823 3.91956 2.40737 3.83333 2.92003 3.83333H3.58669C4.09935 3.83333 4.62443 3.91956 5.01033 4.27578C5.40802 4.64288 5.52003 5.16572 5.52003 5.7V12.2333C5.52003 12.7676 5.40802 13.2904 5.01033 13.6575C4.62443 14.0138 4.09935 14.1 3.58669 14.1H2.92003C2.40737 14.1 1.8823 14.0138 1.49639 13.6575C1.0987 13.2904 0.986694 12.7676 0.986694 12.2333V5.7C0.986694 5.16572 1.0987 4.64288 1.49639 4.27578Z" fill="#444444"/>
</svg>
