<svg width="28" height="28" viewBox="0 0 28 28" fill="none" xmlns="http://www.w3.org/2000/svg">
<path opacity="0.4" d="M25.2584 11.7017C24.8034 11.0483 23.9984 10.675 23.0767 10.675H18.2934C17.9784 10.675 17.6867 10.5467 17.4884 10.3133C17.2784 10.08 17.1967 9.75332 17.2434 9.41499L17.8384 5.58832C18.095 4.44499 17.3367 3.16166 16.1934 2.77666C15.1317 2.37999 13.8834 2.91666 13.3817 3.67499L8.45836 10.99L8.31836 11.2233V21.5367L8.49336 21.7117L12.1917 24.57C12.6817 25.06 13.79 25.3283 14.5717 25.3283H19.1217C20.685 25.3283 22.26 24.15 22.61 22.715L25.48 13.9767C25.7834 13.1483 25.7017 12.3433 25.2584 11.7017Z" fill="#91ec22"/>
<path d="M6.0785 7.44336H4.87683C3.0685 7.44336 2.3335 8.14336 2.3335 9.87003V21.6067C2.3335 23.3334 3.0685 24.0334 4.87683 24.0334H6.0785C7.88683 24.0334 8.62183 23.3334 8.62183 21.6067V9.87003C8.62183 8.14336 7.88683 7.44336 6.0785 7.44336Z" fill="#91ec22"/>
</svg>
