<svg width="29" height="28" viewBox="0 0 29 28" fill="none" xmlns="http://www.w3.org/2000/svg">
<path opacity="0.4" d="M25.7723 11.5787C25.3221 10.9323 24.5255 10.5628 23.6136 10.5628H18.8805C18.5688 10.5628 18.2802 10.4359 18.0839 10.205C17.8761 9.97409 17.7953 9.65086 17.8415 9.31608L18.4303 5.52961C18.6842 4.39829 17.9339 3.12843 16.8025 2.74748C15.752 2.35498 14.5168 2.88601 14.0204 3.63637L9.14878 10.8745L9.01025 11.1054V21.3104L9.18342 21.4836L12.8429 24.3119C13.3278 24.7967 14.4244 25.0623 15.1979 25.0623H19.7001C21.247 25.0623 22.8055 23.8963 23.1518 22.4764L25.9917 13.8298C26.2918 13.0102 26.211 12.2137 25.7723 11.5787Z" fill="#999999"/>
<path d="M6.79355 7.36511H5.60451C3.81517 7.36511 3.08789 8.05776 3.08789 9.76629V21.3797C3.08789 23.0882 3.81517 23.7808 5.60451 23.7808H6.79355C8.58289 23.7808 9.31017 23.0882 9.31017 21.3797V9.76629C9.31017 8.05776 8.58289 7.36511 6.79355 7.36511Z" fill="#999999"/>
</svg>
