<svg width="29" height="28" viewBox="0 0 29 28" fill="none" xmlns="http://www.w3.org/2000/svg">
<path d="M6.71167 25.375C5.405 25.375 4.57667 24.9317 4.05167 24.4067C3.02501 23.38 2.30167 21.1984 4.61167 16.5667L5.62667 14.5484C5.755 14.28 5.755 13.72 5.62667 13.4517L4.61167 11.4334C2.29 6.80169 3.02501 4.60836 4.05167 3.59336C5.06667 2.56669 7.26 1.83169 11.88 4.15336L21.8667 9.14669C24.3517 10.3834 25.7167 12.11 25.7167 14C25.7167 15.89 24.3517 17.6167 21.8783 18.8534L11.8917 23.8467C9.62834 24.9784 7.94834 25.375 6.71167 25.375ZM6.71167 4.37503C6.08167 4.37503 5.59167 4.52669 5.28834 4.83003C4.43667 5.67003 4.775 7.85169 6.175 10.64L7.19001 12.67C7.56334 13.4284 7.56334 14.5717 7.19001 15.33L6.175 17.3484C4.775 20.1484 4.43667 22.3184 5.28834 23.1584C6.12834 24.01 8.31001 23.6717 11.11 22.2717L21.0967 17.2784C22.9283 16.3684 23.9667 15.1667 23.9667 13.9884C23.9667 12.81 22.9167 11.6084 21.085 10.6984L11.0983 5.71669C9.32501 4.83003 7.79667 4.37503 6.71167 4.37503Z" fill="white"/>
<path d="M13.0466 14.875H6.74658C6.26825 14.875 5.87158 14.4783 5.87158 14C5.87158 13.5217 6.26825 13.125 6.74658 13.125H13.0466C13.5249 13.125 13.9216 13.5217 13.9216 14C13.9216 14.4783 13.5249 14.875 13.0466 14.875Z" fill="white"/>
</svg>
