<svg width="81" height="25" viewBox="0 0 81 25" fill="none" xmlns="http://www.w3.org/2000/svg">
<path d="M14.3984 14.7227C14.3984 15.2461 14.332 15.7188 14.1992 16.1406C14.0664 16.5547 13.8906 16.9219 13.6719 17.2422C13.4531 17.5547 13.1992 17.8242 12.9102 18.0508C12.6211 18.2695 12.3164 18.4492 11.9961 18.5898C11.6836 18.7305 11.3672 18.8359 11.0469 18.9062C10.7266 18.9688 10.4219 19 10.1328 19H4.63672V15.9531H10.1328C10.5391 15.9531 10.8438 15.8477 11.0469 15.6367C11.25 15.4258 11.3516 15.1211 11.3516 14.7227V10.6211C11.3516 10.1992 11.2461 9.88672 11.0352 9.68359C10.832 9.48047 10.5312 9.37891 10.1328 9.37891H4.66016C4.24609 9.37891 3.93359 9.48438 3.72266 9.69531C3.51172 9.89844 3.40625 10.1992 3.40625 10.5977V22.9609H0.359375V10.5977C0.359375 10.0742 0.425781 9.60547 0.558594 9.19141C0.691406 8.77734 0.867188 8.41406 1.08594 8.10156C1.3125 7.78125 1.57031 7.51172 1.85938 7.29297C2.14844 7.06641 2.44922 6.88281 2.76172 6.74219C3.08203 6.60156 3.40234 6.5 3.72266 6.4375C4.05078 6.36719 4.35547 6.33203 4.63672 6.33203H10.1328C10.6562 6.33203 11.125 6.39844 11.5391 6.53125C11.9531 6.66406 12.3164 6.83984 12.6289 7.05859C12.9492 7.27734 13.2188 7.53125 13.4375 7.82031C13.6641 8.10938 13.8477 8.41406 13.9883 8.73438C14.1289 9.04688 14.2305 9.36328 14.293 9.68359C14.3633 10.0039 14.3984 10.3086 14.3984 10.5977V14.7227ZM30.8516 17.4648C30.8516 17.6836 30.8125 17.8867 30.7344 18.0742C30.6562 18.2617 30.5469 18.4258 30.4062 18.5664C30.2734 18.6992 30.1133 18.8047 29.9258 18.8828C29.7461 18.9609 29.5508 19 29.3398 19H22.4492C22.0742 19 21.6719 18.957 21.2422 18.8711C20.8203 18.7852 20.4023 18.6484 19.9883 18.4609C19.5742 18.2656 19.1719 18.0234 18.7812 17.7344C18.3984 17.4375 18.0625 17.082 17.7734 16.668C17.4844 16.2461 17.25 15.7617 17.0703 15.2148C16.8984 14.668 16.8125 14.0508 16.8125 13.3633V6.33203H19.8594V13.3633C19.8594 13.7617 19.9258 14.1211 20.0586 14.4414C20.1992 14.7539 20.3867 15.0234 20.6211 15.25C20.8555 15.4766 21.1289 15.6523 21.4414 15.7773C21.7617 15.8945 22.1055 15.9531 22.4727 15.9531H27.8047V6.33203H30.8516V17.4648ZM44.7969 9.37891H37.9414C37.5273 9.37891 37.2148 9.48438 37.0039 9.69531C36.793 9.89844 36.6875 10.1992 36.6875 10.5977V19H33.6406V10.5977C33.6406 10.0742 33.707 9.60547 33.8398 9.19141C33.9727 8.77734 34.1484 8.41406 34.3672 8.10156C34.5938 7.78125 34.8516 7.51172 35.1406 7.29297C35.4297 7.06641 35.7305 6.88281 36.043 6.74219C36.3633 6.60156 36.6836 6.5 37.0039 6.4375C37.332 6.36719 37.6367 6.33203 37.918 6.33203H44.7969V9.37891ZM49.9062 3.73047H46.8594V0.976562H49.9062V3.73047ZM49.9062 19H46.8594V6.33203H49.9062V19ZM64.0508 9.37891H57.1602V6.33203H64.0508V9.37891ZM64.0508 3.88281H57.1836C56.7695 3.88281 56.457 3.98828 56.2461 4.19922C56.0352 4.40234 55.9297 4.70312 55.9297 5.10156V19H52.8828V5.10156C52.8828 4.57812 52.9492 4.10938 53.082 3.69531C53.2148 3.28125 53.3906 2.91797 53.6094 2.60547C53.8359 2.28516 54.0938 2.01563 54.3828 1.79688C54.6719 1.57031 54.9727 1.38672 55.2852 1.24609C55.6055 1.10547 55.9258 1.00391 56.2461 0.941406C56.5664 0.871094 56.8711 0.835938 57.1602 0.835938H64.0508V3.88281ZM80.0234 20.2188C80.0234 20.7422 79.957 21.2109 79.8242 21.625C79.6914 22.0469 79.5156 22.4141 79.2969 22.7266C79.0781 23.0469 78.8242 23.3164 78.5352 23.5352C78.2461 23.7617 77.9414 23.9453 77.6211 24.0859C77.3086 24.2266 76.9922 24.3281 76.6719 24.3906C76.3516 24.4609 76.0469 24.4961 75.7578 24.4961H70.2617V21.4492H75.7578C76.1641 21.4492 76.4688 21.3438 76.6719 21.1328C76.875 20.9219 76.9766 20.6172 76.9766 20.2188V6.33203H80.0234V20.2188ZM75.7578 19H70.2617C69.8242 19 69.3555 18.9258 68.8555 18.7773C68.3633 18.6289 67.9023 18.3867 67.4727 18.0508C67.043 17.707 66.6875 17.2656 66.4062 16.7266C66.125 16.1797 65.9844 15.5117 65.9844 14.7227V6.33203H69.0312V14.7227C69.0312 15.1211 69.1367 15.4258 69.3477 15.6367C69.5586 15.8477 69.8711 15.9531 70.2852 15.9531H75.7578V19Z" fill="#444444"/>
</svg>
