<svg width="24" height="24" viewBox="0 0 24 24" fill="none" xmlns="http://www.w3.org/2000/svg">
<g clip-path="url(#clip0_215_790)">
<path d="M16.125 17.4375H8.25C7.9019 17.4375 7.56806 17.2992 7.32192 17.0531C7.07578 16.8069 6.9375 16.4731 6.9375 16.125V14.1562H8.25V16.125H16.125V14.1562H17.4375V16.125C17.4375 16.4731 17.2992 16.8069 17.0531 17.0531C16.8069 17.2992 16.4731 17.4375 16.125 17.4375Z" fill="#1F2937"/>
<path d="M21.375 11.5312H3V12.8438H21.375V11.5312Z" fill="#1F2937"/>
<path d="M17.4375 10.2188H16.125V8.25H8.25V10.2188H6.9375V8.25C6.9375 7.9019 7.07578 7.56806 7.32192 7.32192C7.56806 7.07578 7.9019 6.9375 8.25 6.9375H16.125C16.4731 6.9375 16.8069 7.07578 17.0531 7.32192C17.2992 7.56806 17.4375 7.9019 17.4375 8.25V10.2188Z" fill="#1F2937"/>
<path d="M21.375 8.25H20.0625V4.3125H16.125V3H21.375V8.25Z" fill="#1F2937"/>
<path d="M4.3125 8.25H3V3H8.25V4.3125H4.3125V8.25Z" fill="#1F2937"/>
<path d="M8.25 21.375H3V16.125H4.3125V20.0625H8.25V21.375Z" fill="#1F2937"/>
<path d="M21.375 21.375H16.125V20.0625H20.0625V16.125H21.375V21.375Z" fill="#1F2937"/>
</g>
<defs>
<clipPath id="clip0_215_790">
<rect width="24" height="24" fill="white"/>
</clipPath>
</defs>
</svg>
